<svg id="Capa_1" enable-background="new 0 0 512 512" height="512" viewBox="0 0 512 512" width="512" xmlns="http://www.w3.org/2000/svg"><g><g><g><path d="m392.893 170.926-74.649 74.65-46.588 32.446-26.08 40.222-76.435 76.435-51.82-51.82 76.435-76.435 40.222-26.08 32.446-46.588 74.649-74.649z" fill="#7a6d79"/><path d="m318.244 245.576-72.669 72.669c-14.31 14.31-37.51 14.31-51.82 0-14.31-14.31-14.31-37.51 0-51.82l72.668-72.668c14.31-14.31 37.51-14.31 51.82 0 14.311 14.309 14.311 37.509.001 51.819z" fill="#ffe177"/><path d="m93.816 470.004 13.972-13.972-37.678-65.962-28.114 28.114c-3.516 3.516-3.516 9.217 0 12.733l39.087 39.087c3.516 3.516 9.217 3.516 12.733 0z" fill="#7a6d79"/><path d="m70.725 278.767-16.273 16.272c-6.483 6.483-6.483 16.993 0 23.476l47.083 75.367 91.95 63.665c6.483 6.483 16.993 6.483 23.476 0l16.272-16.272c6.483-6.483 6.483-16.993 0-23.476l-139.032-139.032c-6.483-6.483-16.994-6.483-23.476 0z" fill="#9ec8fc"/><path d="m334.781 14.71-16.272 16.273c-6.483 6.483-6.483 16.993 0 23.476l38.422 52.564 100.611 86.469c6.483 6.483 16.993 6.483 23.476 0l16.273-16.273c6.483-6.483 6.483-16.993 0-23.476l-139.033-139.033c-6.483-6.483-16.994-6.483-23.477 0z" fill="#f07281"/><path d="m418.184 41.996-28.114 28.114 65.962 37.678 13.972-13.972c3.516-3.516 3.516-9.217 0-12.733l-39.087-39.087c-3.516-3.516-9.217-3.516-12.733 0z" fill="#685e68"/><path d="m292.691 56.8-16.272 16.272c-6.483 6.483-6.483 16.993 0 23.476l139.033 139.033c6.483 6.483 16.993 6.483 23.476 0l16.273-16.272c6.483-6.483 6.483-16.993 0-23.476l-139.033-139.033c-6.483-6.483-16.994-6.483-23.477 0z" fill="#9ec8fc"/><path d="m295.039 54.452-14.086 14.086c6.483-6.483 16.993-6.483 23.476 0l139.033 139.032c6.483 6.483 6.483 16.993 0 23.476l14.086-14.086c6.483-6.483 6.483-16.993 0-23.476l-139.033-139.032c-6.483-6.483-16.993-6.483-23.476 0z" fill="#80b6fc"/><path d="m73.072 276.419-14.086 14.086c6.483-6.483 16.993-6.483 23.476 0l139.033 139.033c6.483 6.483 6.483 16.993 0 23.476l14.086-14.086c6.483-6.483 6.483-16.993 0-23.476l-139.033-139.033c-6.483-6.483-16.993-6.483-23.476 0z" fill="#80b6fc"/><path d="m28.635 320.857-16.272 16.273c-6.483 6.483-6.483 16.993 0 23.476l139.033 139.033c6.483 6.483 16.993 6.483 23.476 0l16.273-16.273c6.483-6.483 6.483-16.993 0-23.476l-139.034-139.033c-6.483-6.483-16.994-6.483-23.476 0z" fill="#f07281"/><g fill="#eb5569"><path d="m30.982 318.509-14.086 14.086c6.483-6.483 16.993-6.483 23.476 0l139.033 139.033c6.483 6.483 6.483 16.993 0 23.476l14.086-14.086c6.483-6.483 6.483-16.993 0-23.476l-139.033-139.033c-6.483-6.483-16.993-6.483-23.476 0z"/><path d="m337.129 12.362-14.086 14.086c6.483-6.483 16.993-6.483 23.476 0l139.033 139.032c6.483 6.483 6.483 16.993 0 23.476l14.086-14.086c6.483-6.483 6.483-16.993 0-23.476l-139.033-139.032c-6.483-6.483-16.993-6.483-23.476 0z"/></g></g></g><g><path d="m216.727 291.594 15.926 3.191c.497.1.993.147 1.481.147 3.501 0 6.632-2.464 7.346-6.027.814-4.061-1.818-8.014-5.88-8.827l-15.926-3.191c-4.059-.81-8.014 1.82-8.827 5.88-.814 4.061 1.819 8.013 5.88 8.827z"/><path d="m265.436 250.242-15.926-3.191c-4.059-.813-8.014 1.819-8.827 5.88-.814 4.061 1.818 8.014 5.88 8.827l15.926 3.191c.497.1.993.148 1.481.148 3.501 0 6.632-2.464 7.346-6.027.815-4.062-1.818-8.014-5.88-8.828z"/><path d="m276.399 231.922 15.926 3.191c.497.1.993.147 1.481.147 3.501 0 6.632-2.464 7.346-6.027.814-4.061-1.818-8.014-5.88-8.827l-15.926-3.191c-4.06-.809-8.014 1.82-8.827 5.88-.814 4.061 1.819 8.013 5.88 8.827z"/><path d="m371.846 202.582 7.663 7.663c2.93 2.928 7.678 2.928 10.607 0 2.929-2.93 2.929-7.678 0-10.607l-108.393-108.394c-3.549-3.548-3.549-9.32 0-12.868l18.62-18.62c3.526-3.526 9.251-3.545 12.803-.06.021.021.038.045.059.066.042.042.088.078.131.118l138.774 138.773c.044.046.083.096.128.142.022.023.048.041.07.063 3.479 3.554 3.461 9.274-.064 12.799l-18.62 18.62c-3.548 3.549-9.321 3.549-12.869 0l-7.527-7.526c-2.929-2.93-7.678-2.929-10.606.001-2.929 2.929-2.929 7.678.001 10.606l7.526 7.526c4.698 4.698 10.87 7.047 17.041 7.047 6.172 0 12.344-2.349 17.042-7.047l18.62-18.62c4.548-4.548 6.873-10.478 7.018-16.451 5.973-.145 11.903-2.471 16.451-7.019l18.619-18.62c4.553-4.552 7.06-10.604 7.06-17.042s-2.507-12.489-7.059-17.042l-38.303-38.303 8.669-8.669c6.433-6.435 6.433-16.904 0-23.34l-39.087-39.086c-6.435-6.434-16.904-6.432-23.34.001l-8.668 8.668-38.303-38.302c-4.553-4.552-10.604-7.059-17.042-7.059s-12.49 2.507-17.042 7.059l-18.62 18.62c-4.548 4.548-6.874 10.478-7.019 16.451-5.973.146-11.903 2.472-16.45 7.018l-18.62 18.62c-9.396 9.396-9.396 24.687 0 34.083l38.303 38.303-88.558 88.558c-2.929 2.93-2.929 7.678 0 10.607 2.93 2.928 7.678 2.928 10.607 0l40.25-40.251c.003-.003.007-.006.01-.009l.019-.019c11.366-11.343 29.84-11.337 41.194.019 11.362 11.362 11.362 29.851 0 41.213l-72.658 72.659c-.003.003-.007.006-.01.009l-.019.019c-11.366 11.343-29.84 11.337-41.194-.019-11.362-11.362-11.362-29.851 0-41.213l8.828-8.828c2.929-2.93 2.929-7.678 0-10.607-2.93-2.928-7.678-2.928-10.607 0l-57.126 57.126-38.303-38.303c-9.397-9.397-24.688-9.396-34.083 0l-18.62 18.62c-4.548 4.548-6.873 10.477-7.018 16.45-5.973.145-11.903 2.471-16.451 7.019l-18.62 18.621c-4.553 4.552-7.06 10.604-7.06 17.042s2.507 12.489 7.059 17.042l38.303 38.303-8.669 8.669c-6.433 6.435-6.433 16.904 0 23.34l39.088 39.087c3.218 3.217 7.443 4.825 11.669 4.825 4.227-.001 8.453-1.609 11.671-4.826l8.668-8.668 38.303 38.303c4.553 4.552 10.604 7.059 17.042 7.059 6.439 0 12.49-2.507 17.042-7.059l18.62-18.62c4.548-4.548 6.874-10.478 7.019-16.451 5.973-.145 11.903-2.472 16.45-7.018l18.62-18.62c9.396-9.396 9.396-24.687 0-34.083l-38.303-38.303zm-283.332 262.118c-.585.586-1.54.586-2.127 0l-39.087-39.086c-.586-.587-.586-1.541-.001-2.127l8.669-8.669 41.213 41.213zm141.763-31.076-18.62 18.62c-3.525 3.528-9.25 3.546-12.803.06-.021-.021-.038-.045-.059-.066-.042-.042-.088-.078-.131-.119l-98.976-98.976c-2.93-2.928-7.678-2.928-10.607 0-2.929 2.93-2.929 7.678 0 10.607l99.101 99.101c.02.02.041.036.061.055 3.49 3.553 3.474 9.279-.055 12.807l-18.62 18.621c-1.719 1.719-4.004 2.665-6.435 2.665s-4.716-.946-6.435-2.666l-139.032-139.031c-1.72-1.719-2.666-4.004-2.666-6.435s.946-4.716 2.666-6.435l18.62-18.62c3.529-3.53 9.257-3.544 12.808-.054.02.02.036.042.055.061l16.433 16.432c2.928 2.928 7.677 2.929 10.606-.001 2.929-2.929 2.929-7.678-.001-10.606l-16.297-16.297c-.044-.046-.083-.096-.128-.142-.023-.023-.048-.041-.07-.064-3.479-3.554-3.461-9.274.065-12.799l18.62-18.62c3.546-3.548 9.32-3.55 12.868 0l139.033 139.033c3.548 3.549 3.548 9.321-.001 12.869zm-79.515-113.599 24.883-24.883c.654 10.35 4.916 20.513 12.808 28.405 7.893 7.892 18.054 12.154 28.405 12.808l-24.883 24.883zm185.593-103.168c-.654-10.35-4.916-20.513-12.808-28.405-7.892-7.891-18.056-12.153-28.407-12.806l24.884-24.884 41.213 41.213zm87.131-169.557c.585-.585 1.54-.587 2.127 0l39.087 39.086c.586.587.586 1.541.001 2.127l-8.669 8.669-41.213-41.213zm70.848 122.267-18.62 18.62c-3.526 3.528-9.25 3.545-12.802.059-.021-.021-.039-.045-.06-.066l-139.034-139.032c-.02-.02-.041-.035-.061-.055-3.491-3.553-3.474-9.279.055-12.807l18.62-18.621c1.719-1.719 4.004-2.665 6.435-2.665s4.716.946 6.435 2.666l139.032 139.032c1.72 1.719 2.666 4.004 2.666 6.435s-.946 4.716-2.666 6.434z"/></g></g></svg>